<?xml version="1.0" standalone="no"?><!DOCTYPE svg PUBLIC "-//W3C//DTD SVG 1.1//EN" "http://www.w3.org/Graphics/SVG/1.1/DTD/svg11.dtd"><svg t="1577442953450" class="icon" viewBox="0 0 1024 1024" version="1.1" xmlns="http://www.w3.org/2000/svg" p-id="7252" xmlns:xlink="http://www.w3.org/1999/xlink" width="200" height="200"><defs><style type="text/css"></style></defs><path d="M810.05017 314.526343l-603.029146 0c-45.323071 0-82.229648 37.472993-82.229648 83.492792l0 389.663208c0 37.608302 24.621307 69.493683 58.368826 79.913619 10.222469 34.261771 41.656557 59.253626 78.68745 59.253626 35.735771 0 66.212508-23.270223 77.52264-55.669056l338.323816 0c11.314329 32.398834 41.787468 55.669056 77.532233 55.669056 37.03469 0 68.425408-24.991856 78.675458-59.253626 33.756913-10.419935 58.367227-42.305117 58.367227-79.913619L892.269026 398.018935C892.269225 351.999137 855.399223 314.526343 810.05017 314.526343L810.05017 314.526343zM837.445596 787.682343c0 15.375575-12.279674 27.824135-27.395426 27.824135l-27.420209 0 0 27.849118c0 15.350592-12.261687 27.825135-27.40342 27.825135-15.14773 0-27.425406-12.474542-27.425406-27.825135l0-27.849118L289.270059 815.506479l0 27.849118c0 15.350592-12.279075 27.825135-27.422408 27.825135-15.145132 0-27.40442-12.474542-27.40442-27.825135l0-27.849118-27.422408 0c-15.145731 0-27.40382-12.44856-27.40382-27.824135L179.617004 398.018935c0-15.350592 12.258089-27.823536 27.40382-27.823536l603.029146 0c15.115752 0 27.395426 12.472943 27.395426 27.823536L837.445396 787.682343 837.445596 787.682343zM344.071703 258.85269c15.141734 0 27.429403-12.44796 27.429403-27.829132L371.501106 175.350504c0-15.375975 12.249095-27.820538 27.394826-27.820538L618.170864 147.529967c15.138736 0 27.426405 12.444563 27.426405 27.820538l0 55.673054c0 15.380972 12.263685 27.829132 27.40442 27.829132 15.137737 0 27.395226-12.44796 27.395226-27.829132L700.396915 175.350504c0-46.020798-36.874999-83.493791-82.226051-83.493791L398.895933 91.856713c-45.321272 0-82.228049 37.472993-82.228049 83.493791l0 55.673054C316.667883 246.40453 328.950556 258.85269 344.071703 258.85269M344.071703 453.692988c-15.146131 0-27.40382 12.472943-27.40382 27.820138l0 222.675026c0 15.348594 12.257689 27.820138 27.40382 27.820138 15.141734 0 27.429403-12.471544 27.429403-27.820138l0-222.675026C371.501106 466.166131 359.213437 453.692988 344.071703 453.692988M673.001489 453.692988c-15.140735 0-27.432401 12.472943-27.432401 27.820138l0 222.675026c0 15.348594 12.291666 27.820138 27.432401 27.820138 15.137737 0 27.395226-12.471544 27.395226-27.820138l0-222.675026C700.396715 466.166131 688.139226 453.692988 673.001489 453.692988" p-id="7253"></path></svg>