<?xml version="1.0" standalone="no"?><!DOCTYPE svg PUBLIC "-//W3C//DTD SVG 1.1//EN" "http://www.w3.org/Graphics/SVG/1.1/DTD/svg11.dtd"><svg t="1577443826105" class="icon" viewBox="0 0 1024 1024" version="1.1" xmlns="http://www.w3.org/2000/svg" p-id="4204" xmlns:xlink="http://www.w3.org/1999/xlink" width="200" height="200"><defs><style type="text/css"></style></defs><path d="M849.06666668 900.19095053H189.43999999c-17.06666667 0-34.13333333-8.53333335-45.22666666-21.33333335l-0.85333333-0.85333333c-11.09333333-15.36000001-14.50666667-33.28-10.24-49.49333338 34.98666667-177.49333333 181.76-312.32000001 356.69333334-326.82666663 4.26666667-0.85333333 7.68-1.70666668 11.09333333-1.70666665h32.42666666l-4.26666666 42.66666666h-17.06666667c-6.82666667 0-10.24 0-15.36000001 1.70666666h-2.55999999c-157.86666667 11.09333333-290.13333333 132.26666667-320.85333333 293.54666667-0.85333333 4.26666667-0.85333333 10.24 3.41333333 14.50666668l0.85333333 1.70666666c2.56 3.41333333 6.82666667 5.12000001 11.94666668 5.11999998h660.47999999c5.12000001 0 9.38666666-1.70666668 11.94666668-5.11999998 4.26666667-5.12000001 5.12000001-10.24 4.26666665-16.21333334-19.62666667-105.81333333-83.62666668-195.41333333-174.08-246.61333333l-0.85333332-0.85333334c-6.82666667-4.26666667-15.36000001-8.53333335-23.04000001-12.8-2.56-1.70666668-5.12000001-2.56-7.67999999-4.26666666l-11.94666669-5.12000001 17.06666668-38.39999998 11.94666668 5.11999999c8.53333335 3.41333333 17.06666667 8.53333335 24.74666665 11.94666665l10.24 5.12000002c102.4 58.02666667 173.22666666 158.72000001 196.26666667 276.47999995 4.26666667 17.06666667 0 34.98666667-12.80000001 50.34666671-11.94666668 13.65333333-29.86666667 21.33333333-46.93333331 21.33333335z" p-id="4205"></path><path d="M523.94666668 529.84428386c-107.52000001 0-196.26666668-88.74666667-196.26666668-196.26666667s88.74666667-196.26666668 196.26666668-196.26666668 196.26666668 88.74666667 196.26666665 196.26666668-89.6 196.26666668-196.26666667 196.26666666z m-2e-8-361.81333335C431.78666666 168.03095051 358.4 242.27095051 358.4 333.57761719s74.24 165.54666668 165.54666668 165.54666667 165.54666668-74.24 165.54666665-165.54666667-74.24-165.54666668-165.54666667-165.54666668z" p-id="4206"></path><path d="M523.94666668 534.11095052c-110.93333334 0-200.53333333-89.6-200.53333335-200.53333333s89.6-200.53333333 200.53333335-200.53333334 200.53333333 89.6 200.53333332 200.53333334-90.45333334 200.53333333-200.53333334 200.53333333z m-2e-8-392.53333334c-105.81333333 0-192 86.18666667-191.99999999 192.00000001S418.13333332 525.57761717 523.94666668 525.57761717s192-86.18666667 191.99999999-191.99999998-86.18666667-192-191.99999999-192.00000001z m0 361.81333333c-93.86666668 0-169.81333333-75.94666667-169.81333333-169.81333332s75.94666667-169.81333333 169.81333335-169.81333333c93.86666668 0 169.81333333 75.94666667 169.81333332 169.81333333S616.96 503.39095051 523.94666668 503.39095051z m0-331.09333333c-88.74666667 0-161.28 72.53333333-161.27999999 161.28000001C362.66666667 422.32428386 435.19999999 494.85761718 523.94666668 494.85761718s161.28-72.53333333 161.27999998-161.27999999c0-88.74666667-72.53333333-161.28-161.27999998-161.28000001zM261.97333333 758.53761718c-1.70666668 0-4.26666667-0.85333333-5.97333333-1.70666666-5.97333333-3.41333333-8.53333335-11.09333333-5.11999999-17.06666667 75.09333333-145.92 238.08-173.22666666 244.90666666-174.08000002 6.82666667-0.85333333 13.65333333 3.41333333 14.50666665 10.24000002 0.85333333 6.82666667-3.41333333 13.65333333-10.24 14.50666666-1.70666668 0-157.01333333 26.45333333-226.13333332 160.42666667-2.56 5.12000001-6.82666667 7.68-11.94666667 7.68zM232.96 832.77761718c-6.82666667 0-12.8-5.97333333-12.80000001-12.8 0-24.74666667 16.21333333-51.2 18.77333334-53.76000001 3.41333333-5.97333333 11.94666668-7.68 17.92-4.26666666 5.97333333 3.41333333 7.68 11.94666668 4.26666666 17.92000001-4.26666667 5.97333333-14.50666667 25.60000001-14.50666666 40.10666666-0.85333333 6.82666667-5.97333333 12.8-13.65333333 12.8z" p-id="4207"></path></svg>